<svg viewBox="0 0 685 50" fill="none" xmlns="http://www.w3.org/2000/svg">
    <path d="M 196.26 48.84 h 10.92 V 0.73 h -10.92 v 48.11 Z M 164.5 0.73 h -10.91 v 48.11 h 31.7 v -8.7 H 164.5 V 0.73 Z m 136.38 25.89 L 277.58 0.18 h -1.46 v 48.7 h 10.53 V 31.16 a 71.72 71.72 0 0 0 -0.35 -8.16 s 1.85 2.84 3.72 5.09 l 10.14 12.49 h 1.54 l 10.09 -12.49 c 1.82 -2.24 3.67 -5.08 3.67 -5.08 a 71.72 71.72 0 0 0 -0.35 8.16 v 17.71 h 10.53 V 0.18 h -1.46 l -23.3 26.44 Z m 61.06 -6.63 l -2.48 -1.06 c -3.23 -1.37 -6.1 -2.91 -6.1 -5.89 c 0 -2.41 1.37 -4 4.28 -4 a 7.559 7.559 0 0 1 6.58 4.2 l 8.18 -4.87 c -3.45 -6 -9 -8.39 -15 -8.39 c -8.86 0 -14.39 5.81 -14.55 13.25 c -0.17 8.27 5.72 12 12.88 15.05 l 2.48 1.06 c 4.54 2 6.67 3.49 6.59 6.5 c -0.09 2.84 -2 4.89 -6.09 4.89 c -4.89 0 -7.77 -2.69 -9.5 -6.37 l -8.64 4.94 c 2.34 5.42 8.82 10.4 18.07 10.4 s 16.73 -4.85 17.05 -13.77 c 0.27 -7.69 -4.88 -12.46 -13.74 -16 l -0.01 0.06 Z M 31.62 0.33 L 13.9 38.73 l 3.7 10.11 h 1.73 l 10.69 -24.09 a 36.617 36.617 0 0 0 2.37 -6.06 a 39.925 39.925 0 0 0 2.33 6 l 10.75 24.15 h 1.73 l 3.69 -10.11 L 33.18 0.33 h -1.56 Z m -20.36 0.4 H 0.02 l 12.74 34.89 l 6 -13.08 L 11.26 0.73 Z m 34.68 21.69 l 6.08 13.2 L 64.8 0.73 H 53.45 l -7.51 21.69 Z m 33.44 26.42 h 10.91 V 0.73 H 79.38 v 48.11 Z M 121.49 0.73 h -10.91 v 48.11 h 31.7 v -8.7 h -20.79 V 0.73 Z m 120.37 31.98 h -5.44 l 4.14 -10.62 c 0.78 -2 1.3 -3.69 1.3 -3.69 s 0.51 1.71 1.29 3.69 l 4.14 10.57 l -5.43 0.05 Z m 0.78 -32.48 h -1.56 L 219.6 48.77 h 10.48 l 3.13 -7.7 h 17.29 l 3.13 7.7 h 10.49 L 242.64 0.23 Z" fill="#0000FF"/>
    <path d="M 551.79 0.73 h 10.92 v 48.11 h -10.92 V 0.73 Z m -21.51 32.01 l -0.28 0.43 c -3.08 4.7 -6.58 6.71 -11.71 6.71 c -8 0 -13.77 -6.32 -13.77 -15 S 510.18 10 518.29 10 a 12.409 12.409 0 0 1 11 5.92 l 0.28 0.46 l 8.24 -5.85 l -0.26 -0.41 C 533.3 3.46 527.02 0.23 518.29 0.23 c -14.11 0 -24.75 10.59 -24.75 24.62 c 0 14.03 10.64 24.69 24.75 24.69 c 8.7 0 15.65 -3.68 20.11 -10.63 l 0.26 -0.41 l -8.38 -5.76 Z m 154.08 -9.58 v -0.47 h -23 v 9.45 h 11.63 c -1.23 4 -5.41 7.8 -12.37 7.8 c -8.11 0 -14 -6.34 -14 -15.09 s 5.72 -14.88 13.92 -14.88 a 12.218 12.218 0 0 1 11.08 6.2 l 0.28 0.46 l 8.45 -6 l -0.26 -0.41 c -4.35 -6.73 -10.75 -10 -19.55 -10 c -14.2 0 -24.9 10.59 -24.9 24.62 c 0 14.31 10.53 24.69 25 24.69 c 7.4 0 13.49 -2.28 17.6 -6.61 c 4.41 -4.62 6.52 -11.45 6.11 -19.77 l 0.01 0.01 Z M 611.73 0.77 v 20.25 c 0 2.11 -0.11 4.1 0.08 5.95 a 43.068 43.068 0 0 0 -4.16 -4.17 L 583.88 0.49 l -0.14 -0.14 h -1.67 v 48.54 h 10.08 V 28.64 c 0.072 -2 0.042 -4.003 -0.09 -6 a 44.533 44.533 0 0 0 4.16 4.23 l 23.8 22.3 l 0.14 0.14 h 1.67 V 0.77 h -10.1 Z M 422.21 16.75 c 0 4.49 -2.33 6.57 -7.33 6.57 h -7 V 10.25 h 7 c 5 0 7.33 2.07 7.33 6.5 Z m 2 14 c 5.8 -2.5 9 -7.46 9 -14 c 0 -10 -6.74 -16 -18 -16 h -18 v 48.11 h 10.7 V 32.5 h 5.38 l 9.57 16.36 h 12.26 l -10.91 -18.11 Z m 40.75 1.96 h -5.43 l 4.13 -10.62 c 0.79 -2 1.3 -3.69 1.3 -3.69 s 0.52 1.71 1.3 3.69 l 4.14 10.57 l -5.44 0.05 Z m 0.78 -32.48 h -1.56 L 442.7 48.77 h 10.49 l 3.13 -7.68 h 17.28 l 3.14 7.7 h 10.48 L 465.74 0.23 Z" fill="#0000FF"/>
</svg>